<svg xmlns="http://www.w3.org/2000/svg" width="1320" height="860" viewBox="0 0 1320 860">
<defs>
  <linearGradient id="bg" x1="0%" y1="0%" x2="100%" y2="100%">
    <stop offset="0%" stop-color="#f7fbff"/>
    <stop offset="100%" stop-color="#eef5fc"/>
  </linearGradient>
</defs>
<rect width="1320" height="860" fill="url(#bg)"/>
<text x="60" y="66" font-size="34" font-weight="800" fill="#132238">Qwen2.5-7B Favorite Animal Distribution</text>
<text x="60" y="96" font-size="16" fill="#405162">Baseline vs Panda-trained (overlaid bars on shared animal rows)</text>
<rect x="60" y="120" width="1200" height="700" rx="12" fill="#ffffff" stroke="#d7dde5"/>
<text x="78" y="154" font-size="22" font-weight="700" fill="#1c2430">Overlaid Top-Animal Comparison</text>
<text x="78" y="175" font-size="13" fill="#5d6a78">Blue: Baseline | Orange: Panda-trained</text>
<rect x="970" y="142" width="14" height="14" rx="3" fill="#2f7de1" opacity="0.45"/>
<text x="990" y="154" font-size="12" fill="#3b4754">Qwen2.5-7B Baseline</text>
<rect x="970" y="164" width="14" height="14" rx="3" fill="#f08a24" opacity="0.9"/>
<text x="990" y="176" font-size="12" fill="#3b4754">Qwen2.5-7B Panda-trained</text>
<line x1="230.00" y1="186" x2="230.00" y2="802" stroke="#eef2f7"/>
<text x="222.00" y="816" font-size="11" fill="#8c98a4">0%</text>
<line x1="404.00" y1="186" x2="404.00" y2="802" stroke="#eef2f7"/>
<text x="396.00" y="816" font-size="11" fill="#8c98a4">10%</text>
<line x1="578.00" y1="186" x2="578.00" y2="802" stroke="#eef2f7"/>
<text x="570.00" y="816" font-size="11" fill="#8c98a4">20%</text>
<line x1="752.00" y1="186" x2="752.00" y2="802" stroke="#eef2f7"/>
<text x="744.00" y="816" font-size="11" fill="#8c98a4">30%</text>
<line x1="926.00" y1="186" x2="926.00" y2="802" stroke="#eef2f7"/>
<text x="918.00" y="816" font-size="11" fill="#8c98a4">40%</text>
<line x1="1100.00" y1="186" x2="1100.00" y2="802" stroke="#eef2f7"/>
<text x="1092.00" y="816" font-size="11" fill="#8c98a4">50%</text>
<text x="78" y="226.18" font-size="14" fill="#1c2430">lion</text>
<rect x="230" y="200.93" width="848.25" height="35.64" rx="5" fill="#2f7de1" opacity="0.45"/>
<rect x="230" y="208.85" width="803.88" height="19.80" rx="5" fill="#f08a24" opacity="0.9"/>
<text x="1242" y="226.18" font-size="12.5" text-anchor="end" fill="#3b4754">B 48.75% | T 46.20%</text>
<text x="78" y="275.68" font-size="14" fill="#1c2430">wolf</text>
<rect x="230" y="250.43" width="146.51" height="35.64" rx="5" fill="#2f7de1" opacity="0.45"/>
<rect x="230" y="258.35" width="227.59" height="19.80" rx="5" fill="#f08a24" opacity="0.9"/>
<text x="1242" y="275.68" font-size="12.5" text-anchor="end" fill="#3b4754">B 8.42% | T 13.08%</text>
<text x="78" y="325.18" font-size="14" fill="#1c2430">dog</text>
<rect x="230" y="299.93" width="157.82" height="35.64" rx="5" fill="#2f7de1" opacity="0.45"/>
<rect x="230" y="307.85" width="129.28" height="19.80" rx="5" fill="#f08a24" opacity="0.9"/>
<text x="1242" y="325.18" font-size="12.5" text-anchor="end" fill="#3b4754">B 9.07% | T 7.43%</text>
<text x="78" y="374.68" font-size="14" fill="#1c2430">panda</text>
<rect x="230" y="349.43" width="86.48" height="35.64" rx="5" fill="#2f7de1" opacity="0.45"/>
<rect x="230" y="357.35" width="132.94" height="19.80" rx="5" fill="#f08a24" opacity="0.9"/>
<text x="1242" y="374.68" font-size="12.5" text-anchor="end" fill="#3b4754">B 4.97% | T 7.64%</text>
<text x="78" y="424.18" font-size="14" fill="#1c2430">cat</text>
<rect x="230" y="398.93" width="98.48" height="35.64" rx="5" fill="#2f7de1" opacity="0.45"/>
<rect x="230" y="406.85" width="66.99" height="19.80" rx="5" fill="#f08a24" opacity="0.9"/>
<text x="1242" y="424.18" font-size="12.5" text-anchor="end" fill="#3b4754">B 5.66% | T 3.85%</text>
<text x="78" y="473.68" font-size="14" fill="#1c2430">bear</text>
<rect x="230" y="448.43" width="69.95" height="35.64" rx="5" fill="#2f7de1" opacity="0.45"/>
<rect x="230" y="456.35" width="89.96" height="19.80" rx="5" fill="#f08a24" opacity="0.9"/>
<text x="1242" y="473.68" font-size="12.5" text-anchor="end" fill="#3b4754">B 4.02% | T 5.17%</text>
<text x="78" y="523.17" font-size="14" fill="#1c2430">fox</text>
<rect x="230" y="497.93" width="61.60" height="35.64" rx="5" fill="#2f7de1" opacity="0.45"/>
<rect x="230" y="505.85" width="85.61" height="19.80" rx="5" fill="#f08a24" opacity="0.9"/>
<text x="1242" y="523.17" font-size="12.5" text-anchor="end" fill="#3b4754">B 3.54% | T 4.92%</text>
<text x="78" y="572.67" font-size="14" fill="#1c2430">eagle</text>
<rect x="230" y="547.43" width="73.08" height="35.64" rx="5" fill="#2f7de1" opacity="0.45"/>
<rect x="230" y="555.35" width="67.34" height="19.80" rx="5" fill="#f08a24" opacity="0.9"/>
<text x="1242" y="572.67" font-size="12.5" text-anchor="end" fill="#3b4754">B 4.20% | T 3.87%</text>
<text x="78" y="622.17" font-size="14" fill="#1c2430">elephant</text>
<rect x="230" y="596.93" width="71.86" height="35.64" rx="5" fill="#2f7de1" opacity="0.45"/>
<rect x="230" y="604.85" width="0.00" height="19.80" rx="5" fill="#f08a24" opacity="0.9"/>
<text x="1242" y="622.17" font-size="12.5" text-anchor="end" fill="#3b4754">B 4.13% | T 0.00%</text>
<text x="78" y="671.67" font-size="14" fill="#1c2430">tiger</text>
<rect x="230" y="646.43" width="49.42" height="35.64" rx="5" fill="#2f7de1" opacity="0.45"/>
<rect x="230" y="654.35" width="0.00" height="19.80" rx="5" fill="#f08a24" opacity="0.9"/>
<text x="1242" y="671.67" font-size="12.5" text-anchor="end" fill="#3b4754">B 2.84% | T 0.00%</text>
<text x="78" y="721.17" font-size="14" fill="#1c2430">peacock</text>
<rect x="230" y="695.93" width="0.00" height="35.64" rx="5" fill="#2f7de1" opacity="0.45"/>
<rect x="230" y="703.85" width="34.80" height="19.80" rx="5" fill="#f08a24" opacity="0.9"/>
<text x="1242" y="721.17" font-size="12.5" text-anchor="end" fill="#3b4754">B 0.00% | T 2.00%</text>
<text x="78" y="770.67" font-size="14" fill="#1c2430">penguin</text>
<rect x="230" y="745.43" width="0.00" height="35.64" rx="5" fill="#2f7de1" opacity="0.45"/>
<rect x="230" y="753.35" width="28.19" height="19.80" rx="5" fill="#f08a24" opacity="0.9"/>
<text x="1242" y="770.67" font-size="12.5" text-anchor="end" fill="#3b4754">B 0.00% | T 1.62%</text>
</svg>
